<svg width="40" height="40" viewBox="0 0 40 40" fill="none" xmlns="http://www.w3.org/2000/svg">
<circle cx="20" cy="20" r="20" fill="white"/>
<path d="M19.1405 12.4923C19.1405 12.1134 19.4444 11.806 19.819 11.806H21.0382C21.4132 11.806 21.7167 12.1134 21.7167 12.4923C21.7167 12.8712 21.4132 13.1787 21.0382 13.1787H19.819C19.4444 13.1787 19.1405 12.8712 19.1405 12.4923Z" fill="#5C2799"/>
<path d="M20.4286 27.7365C20.7568 27.7365 21.0231 27.4671 21.0231 27.1351C21.0231 26.8026 20.7568 26.5332 20.4286 26.5332C20.0999 26.5332 19.8336 26.8026 19.8336 27.1351C19.8336 27.4671 20.0999 27.7365 20.4286 27.7365Z" fill="#5C2799"/>
<path fill-rule="evenodd" clip-rule="evenodd" d="M16.6615 9C15.1914 9 14 10.2051 14 11.6921V27.7365C14 29.2235 15.1914 30.4286 16.6615 30.4286H24.1957C25.6658 30.4286 26.8571 29.2235 26.8571 27.7365V11.6921C26.8571 10.2051 25.6658 9 24.1957 9H16.6615ZM15.357 11.6921C15.357 10.9633 15.941 10.3726 16.6615 10.3726H24.1957C24.9162 10.3726 25.5001 10.9633 25.5001 11.6921V27.7365C25.5001 28.4652 24.9162 29.0559 24.1957 29.0559H16.6615C15.941 29.0559 15.357 28.4652 15.357 27.7365V24.9809H24.4108C24.7854 24.9809 25.0893 24.6735 25.0893 24.2946C25.0893 23.9157 24.7854 23.6083 24.4108 23.6083H15.357V11.6921Z" fill="#5C2799"/>
</svg>
