<svg width="32" height="27" viewBox="0 0 32 27" fill="none" xmlns="http://www.w3.org/2000/svg">
<g filter="url(#filter0_d)">
<path d="M5.74016 21.4999C5.62641 21.4999 5.51016 21.4761 5.40266 21.4261C5.12016 21.2949 4.94016 21.0111 4.94016 20.6999V4.49988C4.94016 2.29364 6.73392 0.499878 8.94016 0.499878H23.0602C25.2664 0.499878 27.0602 2.29364 27.0602 4.49988V13.9399C27.0602 16.1461 25.2664 17.9399 23.0602 17.9399H10.249L6.25632 21.3111C6.10882 21.4348 5.92515 21.4999 5.74016 21.4999ZM8.94016 2.09987C7.61642 2.09987 6.54016 3.17612 6.54016 4.49987V18.9773L9.44016 16.5286C9.58391 16.4061 9.76765 16.3398 9.95642 16.3398H23.0601C24.3838 16.3398 25.4601 15.2636 25.4601 13.9398V4.49982C25.4601 3.17608 24.3838 2.09982 23.0601 2.09982L8.94016 2.09987Z" fill="white"/>
</g>
<defs>
<filter id="filter0_d" x="0.940159" y="0.499878" width="30.12" height="29" filterUnits="userSpaceOnUse" color-interpolation-filters="sRGB">
<feFlood flood-opacity="0" result="BackgroundImageFix"/>
<feColorMatrix in="SourceAlpha" type="matrix" values="0 0 0 0 0 0 0 0 0 0 0 0 0 0 0 0 0 0 127 0"/>
<feOffset dy="4"/>
<feGaussianBlur stdDeviation="2"/>
<feColorMatrix type="matrix" values="0 0 0 0 0 0 0 0 0 0 0 0 0 0 0 0 0 0 0.25 0"/>
<feBlend mode="normal" in2="BackgroundImageFix" result="effect1_dropShadow"/>
<feBlend mode="normal" in="SourceGraphic" in2="effect1_dropShadow" result="shape"/>
</filter>
</defs>
</svg>
