<svg width="23" height="20" viewBox="0 0 23 20" fill="none" xmlns="http://www.w3.org/2000/svg">
<path d="M5.45949 2.94967C5.44796 2.90791 5.43513 2.86668 5.42107 2.82603C5.14458 2.02677 4.38677 1.45 3.49171 1.45C2.53452 1.45 1.73415 2.10939 1.5116 2.99647C1.47127 3.15721 1.45 3.32497 1.45 3.49694C1.45 3.69989 1.50204 3.92657 1.53954 4.07065C1.57179 4.19453 1.62118 4.35328 1.62226 4.35442L1.90305 5.39736L2.2837 6.95097C2.2837 6.95097 2.2837 6.95097 2.2837 6.95097C2.55169 8.04482 2.81902 9.13885 3.08639 10.2331L5.45949 2.94967ZM5.45949 2.94967C5.50592 3.08782 5.55154 3.27234 5.57897 3.39997L5.57897 3.39998C5.59649 3.48148 5.61029 3.54505 5.62599 3.60285L5.45949 2.94967ZM6.6489 18.5163C5.96162 18.4104 5.47682 18.0854 5.14303 17.6303C4.82769 17.2004 4.66715 16.6806 4.55242 16.2153L4.55241 16.2152C4.06119 14.2224 3.57402 12.2287 3.08701 10.2356L3.08673 10.2344L3.08671 10.2344L3.08641 10.2331L21.3543 3.73767L21.8894 3.86503C20.9361 7.87003 19.9236 11.8604 18.9123 15.8459L18.9121 15.8465L18.7604 16.4444C18.6456 16.8968 18.4298 17.3041 18.0945 17.6181C17.7572 17.934 17.3272 18.1289 16.8306 18.1984L16.8305 18.1984C16.3512 18.2654 15.8826 18.2251 15.4534 18.0423C15.0216 17.8584 14.6649 17.5453 14.3903 17.1241M6.6489 18.5163C6.64889 18.5163 6.64888 18.5163 6.64888 18.5163L6.73271 17.9728L6.6489 18.5163ZM6.6489 18.5163C7.34022 18.623 7.91027 18.4704 8.37997 18.1387C8.82605 17.8237 9.14911 17.3694 9.41251 16.9332L9.41258 16.9331L9.49824 16.7912L9.49826 16.7912C9.96299 16.0211 10.4174 15.2685 10.9187 14.5537L10.4684 14.2379M10.4684 14.2379L10.9187 14.5537C11.3806 13.8951 11.6927 13.7677 11.8569 13.7695C12.0237 13.7714 12.3375 13.9088 12.7945 14.5789L13.2489 14.269M10.4684 14.2379C11.4278 12.8699 12.3015 12.8799 13.2489 14.269M10.4684 14.2379C9.95447 14.9707 9.49044 15.7396 9.02736 16.507L14.1523 15.6999M13.2489 14.269L12.7945 14.5789C13.1025 15.0306 13.3879 15.5006 13.6821 15.9852L13.6821 15.9853L13.6834 15.9873M13.2489 14.269C13.5665 14.7348 13.8594 15.2173 14.1523 15.6999M13.6834 15.9873L13.6844 15.9891C13.9118 16.3638 14.1446 16.7474 14.3903 17.1241M13.6834 15.9873L13.6821 15.9853L14.1454 15.7041L14.1523 15.6999M13.6834 15.9873L13.6846 15.9894L13.6846 15.9894L14.1523 15.6999M14.3903 17.1241L14.8511 16.8237M14.3903 17.1241C14.3903 17.1241 14.3904 17.1241 14.3904 17.1242L14.8511 16.8237M16.4786 3.29179L16.3966 3.09649L16.3966 3.09647L16.2657 2.78467L16.2661 2.78454L16.2662 2.78446L16.4786 3.29179ZM16.4786 3.29179L16.4786 3.29181M16.4786 3.29179L16.4786 3.29181M16.4786 3.29181L16.4786 3.2918C17.0811 3.03893 17.6837 2.78605 18.2896 2.54343C18.3665 2.51261 18.4434 2.4812 18.5203 2.44976L18.5207 2.44959L18.5232 2.44858L12.3794 4.8799M16.4786 3.29181L16.4784 3.29189L16.4781 3.292C15.1245 3.86014 13.7709 4.42824 12.3794 4.8799M12.3794 4.8799L12.2096 4.35677C10.7715 4.82357 9.24085 5.11776 7.72615 5.24574C7.02038 5.30538 6.61455 5.17787 6.3428 4.95901C6.05591 4.72797 5.82021 4.31795 5.626 3.60287L12.3794 4.8799ZM14.8511 16.8237C14.6102 16.4544 14.3812 16.0772 14.1523 15.7L14.1523 15.6999M14.8511 16.8237C15.2954 17.5052 15.9532 17.7658 16.7543 17.6537C17.5489 17.5425 18.0399 17.0476 18.2273 16.3092L14.1523 15.6999M14.1523 15.6999L14.1523 15.6999M14.1523 15.6999L14.1523 15.6999M3.6212 10.1047C4.10827 12.098 4.59533 14.0913 5.08643 16.0836L4.9333 3.11069C4.92388 3.0752 4.91319 3.04023 4.90129 3.00584C4.69875 2.42032 4.14414 2 3.49171 2C2.79391 2 2.20801 2.48082 2.04507 3.13031C2.01563 3.24763 2 3.37045 2 3.49694C2 3.72521 2.11391 4.08491 2.14375 4.17914C2.14715 4.18988 2.14946 4.19717 2.15039 4.20043L2.43576 5.26041L2.8179 6.82009C3.08594 7.91415 3.35332 9.00837 3.62069 10.1026L3.62101 10.1039L3.6212 10.1047ZM18.3127 1.94046C18.3127 1.94047 18.3126 1.94048 18.3126 1.94048L18.5207 2.44953L18.3127 1.94046Z" stroke="#00C9B6" stroke-width="1.1"/>
</svg>
